<mxfile host="app.diagrams.net" modified="2024-03-04T05:35:57.468Z" agent="Mozilla/5.0 (X11; Linux x86_64) AppleWebKit/537.36 (KHTML, like Gecko) Chrome/122.0.0.0 Safari/537.36" etag="j68X9YIlkkh8JI9TYr0K" version="24.0.0" type="device">
  <diagram name="Страница — 1" id="bjROk1FGZJzqGW-whNQt">
    <mxGraphModel dx="4754" dy="3462" grid="1" gridSize="10" guides="1" tooltips="1" connect="1" arrows="1" fold="1" page="1" pageScale="1" pageWidth="1169" pageHeight="827" math="0" shadow="0">
      <root>
        <mxCell id="0" />
        <mxCell id="1" parent="0" />
        <mxCell id="iWXGu4qHUyrVc3mA0MU8-36" value="&lt;b&gt;4. Add the certificate under alias &#39;&lt;font color=&quot;#009900&quot;&gt;caroot&lt;/font&gt;&#39; to the clients&#39; truststore&lt;/b&gt;&lt;br&gt;&lt;font color=&quot;#3333ff&quot;&gt;keytool -keystore kafka.client.truststore.jks -alias caroot -importcert -file ca-cert&lt;/font&gt;" style="rounded=1;whiteSpace=wrap;html=1;fillColor=#eeeeee;strokeColor=#36393d;" parent="1" vertex="1">
          <mxGeometry x="-279.5" y="-780" width="479" height="30" as="geometry" />
        </mxCell>
        <mxCell id="iWXGu4qHUyrVc3mA0MU8-1" value="file: kafka.server.keystore.jks" style="rounded=0;whiteSpace=wrap;html=1;fillColor=#d5e8d4;strokeColor=#82b366;strokeWidth=3;" parent="1" vertex="1">
          <mxGeometry x="360" y="-1470" width="170" height="60" as="geometry" />
        </mxCell>
        <mxCell id="iWXGu4qHUyrVc3mA0MU8-2" value="file: ca-cert&lt;br&gt;--- CERTIFICATE---" style="rounded=0;whiteSpace=wrap;html=1;strokeWidth=3;fillColor=#ffff88;strokeColor=#36393d;" parent="1" vertex="1">
          <mxGeometry x="-1043" y="-1343" width="170" height="60" as="geometry" />
        </mxCell>
        <mxCell id="iWXGu4qHUyrVc3mA0MU8-3" value="file: ca-priv-key&lt;br&gt;--- PRIVATE KEY ---" style="rounded=0;whiteSpace=wrap;html=1;strokeWidth=3;fillColor=#ffff88;strokeColor=#36393d;" parent="1" vertex="1">
          <mxGeometry x="-825" y="-1343" width="170" height="60" as="geometry" />
        </mxCell>
        <mxCell id="iWXGu4qHUyrVc3mA0MU8-4" value="kafka.client.truststore.jks" style="rounded=0;whiteSpace=wrap;html=1;fillColor=#e1d5e7;strokeColor=#9673a6;" parent="1" vertex="1">
          <mxGeometry x="360" y="-795" width="170" height="60" as="geometry" />
        </mxCell>
        <mxCell id="iWXGu4qHUyrVc3mA0MU8-5" value="kafka.server.truststore.jks" style="rounded=0;whiteSpace=wrap;html=1;fillColor=#d5e8d4;strokeColor=#82b366;" parent="1" vertex="1">
          <mxGeometry x="360" y="-975" width="170" height="60" as="geometry" />
        </mxCell>
        <mxCell id="iWXGu4qHUyrVc3mA0MU8-6" value="" style="endArrow=classic;html=1;rounded=0;exitX=0;exitY=0.5;exitDx=0;exitDy=0;entryX=0;entryY=0.5;entryDx=0;entryDy=0;" parent="1" source="iWXGu4qHUyrVc3mA0MU8-2" target="iWXGu4qHUyrVc3mA0MU8-36" edge="1">
          <mxGeometry width="50" height="50" relative="1" as="geometry">
            <mxPoint x="-280" y="-1120" as="sourcePoint" />
            <mxPoint x="-350" y="-690" as="targetPoint" />
            <Array as="points">
              <mxPoint x="-1120" y="-1313" />
              <mxPoint x="-1120" y="-765" />
            </Array>
          </mxGeometry>
        </mxCell>
        <mxCell id="iWXGu4qHUyrVc3mA0MU8-7" value="" style="endArrow=classic;html=1;rounded=0;exitX=0;exitY=0.75;exitDx=0;exitDy=0;entryX=0;entryY=0.5;entryDx=0;entryDy=0;" parent="1" source="iWXGu4qHUyrVc3mA0MU8-2" target="iWXGu4qHUyrVc3mA0MU8-40" edge="1">
          <mxGeometry width="50" height="50" relative="1" as="geometry">
            <mxPoint x="-280" y="-1120" as="sourcePoint" />
            <mxPoint x="-230" y="-1170" as="targetPoint" />
            <Array as="points">
              <mxPoint x="-1100" y="-1298" />
              <mxPoint x="-1100" y="-940" />
            </Array>
          </mxGeometry>
        </mxCell>
        <mxCell id="iWXGu4qHUyrVc3mA0MU8-9" value="file: cert-req-file&lt;br&gt;--- CERTIFICATE REQUEST---" style="rounded=0;whiteSpace=wrap;html=1;fillColor=#ffff88;strokeColor=#36393d;" parent="1" vertex="1">
          <mxGeometry x="360" y="-1310" width="170" height="60" as="geometry" />
        </mxCell>
        <mxCell id="iWXGu4qHUyrVc3mA0MU8-10" value="file: cert-signed&lt;br&gt;--- CERTIFICATE ---" style="rounded=0;whiteSpace=wrap;html=1;fillColor=#ffff88;strokeColor=#36393d;" parent="1" vertex="1">
          <mxGeometry x="-825" y="-1130" width="170" height="60" as="geometry" />
        </mxCell>
        <mxCell id="iWXGu4qHUyrVc3mA0MU8-11" value="" style="endArrow=classic;html=1;rounded=0;exitX=0.5;exitY=1;exitDx=0;exitDy=0;entryX=0.75;entryY=0;entryDx=0;entryDy=0;" parent="1" source="iWXGu4qHUyrVc3mA0MU8-9" target="iWXGu4qHUyrVc3mA0MU8-46" edge="1">
          <mxGeometry width="50" height="50" relative="1" as="geometry">
            <mxPoint x="110" y="-1130" as="sourcePoint" />
            <mxPoint x="660" y="-1210" as="targetPoint" />
            <Array as="points">
              <mxPoint x="445" y="-1220" />
              <mxPoint x="-565" y="-1220" />
            </Array>
          </mxGeometry>
        </mxCell>
        <mxCell id="iWXGu4qHUyrVc3mA0MU8-12" value="" style="endArrow=classic;html=1;rounded=0;exitX=0.5;exitY=1;exitDx=0;exitDy=0;entryX=0.5;entryY=0;entryDx=0;entryDy=0;" parent="1" source="iWXGu4qHUyrVc3mA0MU8-3" target="iWXGu4qHUyrVc3mA0MU8-46" edge="1">
          <mxGeometry width="50" height="50" relative="1" as="geometry">
            <mxPoint x="104" y="-1130" as="sourcePoint" />
            <mxPoint x="264" y="-1240" as="targetPoint" />
          </mxGeometry>
        </mxCell>
        <mxCell id="iWXGu4qHUyrVc3mA0MU8-13" value="" style="endArrow=classic;html=1;rounded=0;exitX=0.75;exitY=1;exitDx=0;exitDy=0;entryX=0.25;entryY=0;entryDx=0;entryDy=0;" parent="1" source="iWXGu4qHUyrVc3mA0MU8-2" target="iWXGu4qHUyrVc3mA0MU8-46" edge="1">
          <mxGeometry width="50" height="50" relative="1" as="geometry">
            <mxPoint x="-286" y="-1120" as="sourcePoint" />
            <mxPoint x="-186" y="-1170" as="targetPoint" />
          </mxGeometry>
        </mxCell>
        <mxCell id="iWXGu4qHUyrVc3mA0MU8-14" value="" style="endArrow=classic;html=1;rounded=0;entryX=0.5;entryY=0;entryDx=0;entryDy=0;exitX=0.5;exitY=1;exitDx=0;exitDy=0;" parent="1" source="iWXGu4qHUyrVc3mA0MU8-1" target="iWXGu4qHUyrVc3mA0MU8-44" edge="1">
          <mxGeometry width="50" height="50" relative="1" as="geometry">
            <mxPoint x="110" y="-1130" as="sourcePoint" />
            <mxPoint x="160" y="-1180" as="targetPoint" />
          </mxGeometry>
        </mxCell>
        <mxCell id="iWXGu4qHUyrVc3mA0MU8-17" value="&lt;b&gt;&lt;font style=&quot;font-size: 12px;&quot;&gt;1&lt;/font&gt;&lt;/b&gt;" style="swimlane;fontStyle=0;childLayout=stackLayout;horizontal=1;startSize=30;horizontalStack=0;resizeParent=1;resizeParentMax=0;resizeLast=0;collapsible=1;marginBottom=0;whiteSpace=wrap;html=1;fontSize=8;spacing=0;spacingLeft=2;" parent="1" vertex="1">
          <mxGeometry x="410" y="-1530" width="70" height="40" as="geometry" />
        </mxCell>
        <mxCell id="iWXGu4qHUyrVc3mA0MU8-18" value="&lt;b&gt;&lt;font color=&quot;#cc0000&quot;&gt;localhost.cer&lt;/font&gt;&lt;/b&gt;" style="text;strokeColor=none;fillColor=none;align=left;verticalAlign=middle;spacingLeft=2;spacingRight=0;overflow=hidden;points=[[0,0.5],[1,0.5]];portConstraint=eastwest;rotatable=0;whiteSpace=wrap;html=1;fontSize=8;spacing=0;" parent="iWXGu4qHUyrVc3mA0MU8-17" vertex="1">
          <mxGeometry y="30" width="70" height="10" as="geometry" />
        </mxCell>
        <mxCell id="iWXGu4qHUyrVc3mA0MU8-30" value="&lt;b&gt;1. Create broker keystore with self-signed certificate &#39;localhost&#39; within&lt;/b&gt;&lt;br&gt;keytool -keystore kafka.server.keystore.jks -alias localhost -keyalg RSA -genkey" style="rounded=1;whiteSpace=wrap;html=1;fillColor=#eeeeee;strokeColor=#36393d;fontSize=12;strokeWidth=1;" parent="1" vertex="1">
          <mxGeometry x="210" y="-1600" width="470" height="40" as="geometry" />
        </mxCell>
        <mxCell id="iWXGu4qHUyrVc3mA0MU8-31" value="" style="endArrow=classic;html=1;rounded=0;entryX=0.5;entryY=0;entryDx=0;entryDy=0;exitX=0.5;exitY=1;exitDx=0;exitDy=0;" parent="1" source="iWXGu4qHUyrVc3mA0MU8-30" target="iWXGu4qHUyrVc3mA0MU8-17" edge="1">
          <mxGeometry width="50" height="50" relative="1" as="geometry">
            <mxPoint x="110" y="-1200" as="sourcePoint" />
            <mxPoint x="160" y="-1250" as="targetPoint" />
          </mxGeometry>
        </mxCell>
        <mxCell id="iWXGu4qHUyrVc3mA0MU8-32" value="&lt;b&gt;3. Create CA&lt;/b&gt;&lt;br&gt;openssl req -new -x509 -keyout ca-priv-key -out ca-cert -days 999" style="rounded=1;whiteSpace=wrap;html=1;fillColor=#eeeeee;strokeColor=#36393d;" parent="1" vertex="1">
          <mxGeometry x="-1036" y="-1410" width="371" height="33" as="geometry" />
        </mxCell>
        <mxCell id="iWXGu4qHUyrVc3mA0MU8-33" value="" style="endArrow=classic;html=1;rounded=0;entryX=0.5;entryY=0;entryDx=0;entryDy=0;exitX=0.5;exitY=1;exitDx=0;exitDy=0;" parent="1" source="iWXGu4qHUyrVc3mA0MU8-32" target="iWXGu4qHUyrVc3mA0MU8-3" edge="1">
          <mxGeometry width="50" height="50" relative="1" as="geometry">
            <mxPoint x="-286" y="-1190" as="sourcePoint" />
            <mxPoint x="-236" y="-1240" as="targetPoint" />
          </mxGeometry>
        </mxCell>
        <mxCell id="iWXGu4qHUyrVc3mA0MU8-34" value="" style="endArrow=classic;html=1;rounded=0;entryX=0.5;entryY=0;entryDx=0;entryDy=0;exitX=0.5;exitY=1;exitDx=0;exitDy=0;" parent="1" source="iWXGu4qHUyrVc3mA0MU8-32" target="iWXGu4qHUyrVc3mA0MU8-2" edge="1">
          <mxGeometry width="50" height="50" relative="1" as="geometry">
            <mxPoint x="-286" y="-1190" as="sourcePoint" />
            <mxPoint x="-236" y="-1240" as="targetPoint" />
          </mxGeometry>
        </mxCell>
        <mxCell id="iWXGu4qHUyrVc3mA0MU8-37" value="" style="endArrow=classic;html=1;rounded=0;entryX=0;entryY=0.5;entryDx=0;entryDy=0;exitX=1;exitY=0.5;exitDx=0;exitDy=0;" parent="1" source="iWXGu4qHUyrVc3mA0MU8-39" target="iWXGu4qHUyrVc3mA0MU8-4" edge="1">
          <mxGeometry width="50" height="50" relative="1" as="geometry">
            <mxPoint x="250" y="-760" as="sourcePoint" />
            <mxPoint x="-230" y="-1240" as="targetPoint" />
          </mxGeometry>
        </mxCell>
        <mxCell id="iWXGu4qHUyrVc3mA0MU8-38" value="&lt;font style=&quot;font-size: 12px;&quot;&gt;&lt;b&gt;4&lt;/b&gt;&lt;/font&gt;" style="swimlane;fontStyle=0;childLayout=stackLayout;horizontal=1;startSize=30;horizontalStack=0;resizeParent=1;resizeParentMax=0;resizeLast=0;collapsible=1;marginBottom=0;whiteSpace=wrap;html=1;fontSize=8;spacing=0;spacingLeft=2;" parent="1" vertex="1">
          <mxGeometry x="250" y="-800" width="70" height="40" as="geometry" />
        </mxCell>
        <mxCell id="iWXGu4qHUyrVc3mA0MU8-39" value="&lt;b&gt;&lt;font color=&quot;#cc0000&quot;&gt;caroot.cer&lt;/font&gt;&lt;/b&gt;" style="text;strokeColor=none;fillColor=none;align=left;verticalAlign=middle;spacingLeft=2;spacingRight=0;overflow=hidden;points=[[0,0.5],[1,0.5]];portConstraint=eastwest;rotatable=0;whiteSpace=wrap;html=1;fontSize=8;spacing=0;" parent="iWXGu4qHUyrVc3mA0MU8-38" vertex="1">
          <mxGeometry y="30" width="70" height="10" as="geometry" />
        </mxCell>
        <mxCell id="iWXGu4qHUyrVc3mA0MU8-40" value="&lt;b&gt;4. Add the certificate under alias &#39;&lt;font color=&quot;#009900&quot;&gt;caroot&lt;/font&gt;&#39; to the brokers&#39; truststore&lt;/b&gt;&lt;br&gt;&lt;font color=&quot;#3333ff&quot;&gt;keytool -keystore kafka.server.truststore.jks -alias caroot -importcert -file ca-cert&lt;/font&gt;" style="rounded=1;whiteSpace=wrap;html=1;fillColor=#eeeeee;strokeColor=#36393d;" parent="1" vertex="1">
          <mxGeometry x="-280" y="-960" width="480" height="30" as="geometry" />
        </mxCell>
        <mxCell id="iWXGu4qHUyrVc3mA0MU8-41" value="" style="endArrow=classic;html=1;rounded=0;exitX=1;exitY=0.5;exitDx=0;exitDy=0;entryX=0;entryY=0.5;entryDx=0;entryDy=0;" parent="1" source="iWXGu4qHUyrVc3mA0MU8-40" target="iWXGu4qHUyrVc3mA0MU8-43" edge="1">
          <mxGeometry width="50" height="50" relative="1" as="geometry">
            <mxPoint x="-380" y="-1170" as="sourcePoint" />
            <mxPoint x="-330" y="-1220" as="targetPoint" />
          </mxGeometry>
        </mxCell>
        <mxCell id="iWXGu4qHUyrVc3mA0MU8-42" value="&lt;b&gt;&lt;font style=&quot;font-size: 12px;&quot;&gt;4&lt;/font&gt;&lt;/b&gt;" style="swimlane;fontStyle=0;childLayout=stackLayout;horizontal=1;startSize=30;horizontalStack=0;resizeParent=1;resizeParentMax=0;resizeLast=0;collapsible=1;marginBottom=0;whiteSpace=wrap;html=1;fontSize=8;spacing=0;spacingLeft=2;" parent="1" vertex="1">
          <mxGeometry x="250" y="-980" width="70" height="40" as="geometry" />
        </mxCell>
        <mxCell id="iWXGu4qHUyrVc3mA0MU8-43" value="&lt;b&gt;&lt;font color=&quot;#cc0000&quot;&gt;caroot.cer&lt;/font&gt;&lt;/b&gt;" style="text;strokeColor=none;fillColor=none;align=left;verticalAlign=middle;spacingLeft=2;spacingRight=0;overflow=hidden;points=[[0,0.5],[1,0.5]];portConstraint=eastwest;rotatable=0;whiteSpace=wrap;html=1;fontSize=8;spacing=0;" parent="iWXGu4qHUyrVc3mA0MU8-42" vertex="1">
          <mxGeometry y="30" width="70" height="10" as="geometry" />
        </mxCell>
        <mxCell id="iWXGu4qHUyrVc3mA0MU8-44" value="&lt;b&gt;2. Export the certificate &#39;localhost&#39; from the keystore&lt;/b&gt;&lt;br&gt;keytool -keystore kafka.server.keystore.jks -alias localhost -certreq -file cert-req-file" style="rounded=1;whiteSpace=wrap;html=1;fillColor=#eeeeee;strokeColor=#36393d;" parent="1" vertex="1">
          <mxGeometry x="210" y="-1380" width="470" height="40" as="geometry" />
        </mxCell>
        <mxCell id="iWXGu4qHUyrVc3mA0MU8-45" value="" style="endArrow=classic;html=1;rounded=0;entryX=0.5;entryY=0;entryDx=0;entryDy=0;exitX=0.5;exitY=1;exitDx=0;exitDy=0;" parent="1" source="iWXGu4qHUyrVc3mA0MU8-44" target="iWXGu4qHUyrVc3mA0MU8-9" edge="1">
          <mxGeometry width="50" height="50" relative="1" as="geometry">
            <mxPoint x="600" y="-1320" as="sourcePoint" />
            <mxPoint x="60" y="-1230" as="targetPoint" />
          </mxGeometry>
        </mxCell>
        <mxCell id="iWXGu4qHUyrVc3mA0MU8-46" value="&lt;b&gt;5. Sign the exported certificate &#39;localhost&#39; with the CA&lt;/b&gt;&lt;br&gt;openssl x509 -req -CA ca-cert -CAkey ca-priv-key -in cert-req-file -out cert-signed -days 999 -CAcreateserial -passin pass:123456" style="rounded=1;whiteSpace=wrap;html=1;fillColor=#eeeeee;strokeColor=#36393d;" parent="1" vertex="1">
          <mxGeometry x="-1090" y="-1196" width="700" height="36" as="geometry" />
        </mxCell>
        <mxCell id="iWXGu4qHUyrVc3mA0MU8-47" value="" style="endArrow=classic;html=1;rounded=0;entryX=0.5;entryY=0;entryDx=0;entryDy=0;exitX=0.5;exitY=1;exitDx=0;exitDy=0;" parent="1" source="iWXGu4qHUyrVc3mA0MU8-46" target="iWXGu4qHUyrVc3mA0MU8-10" edge="1">
          <mxGeometry width="50" height="50" relative="1" as="geometry">
            <mxPoint x="394" y="-1180" as="sourcePoint" />
            <mxPoint x="444" y="-1230" as="targetPoint" />
            <Array as="points" />
          </mxGeometry>
        </mxCell>
        <mxCell id="iWXGu4qHUyrVc3mA0MU8-48" value="&lt;b&gt;4. Add the certificate under alias &#39;&lt;font color=&quot;#009900&quot;&gt;caroot&lt;/font&gt;&#39; to the broker keystore&lt;/b&gt;&lt;br&gt;&lt;font color=&quot;#3333ff&quot;&gt;keytool -keystore kafka.server.keystore.jks -alias caroot -importcert -file ca-cert&lt;/font&gt;" style="rounded=1;whiteSpace=wrap;html=1;fillColor=#eeeeee;strokeColor=#36393d;" parent="1" vertex="1">
          <mxGeometry x="-280" y="-1455" width="469" height="30" as="geometry" />
        </mxCell>
        <mxCell id="iWXGu4qHUyrVc3mA0MU8-49" value="&lt;b&gt;6. Add the signed certificate &#39;&lt;font color=&quot;#009900&quot;&gt;localhost&lt;/font&gt;&#39; to the broker keystore&lt;br&gt;&lt;font color=&quot;#cc0000&quot;&gt;(&#39;caroot.cer&#39; must be already presented in &#39;kafka.server.keystore.jks&#39;!)&lt;/font&gt;&lt;/b&gt;&lt;br&gt;&lt;font color=&quot;#3333ff&quot;&gt;keytool -keystore kafka.server.keystore.jks -alias localhost -importcert -file cert-signed&lt;/font&gt;" style="rounded=1;whiteSpace=wrap;html=1;fillColor=#eeeeee;strokeColor=#36393d;" parent="1" vertex="1">
          <mxGeometry x="-279" y="-1054" width="479" height="50" as="geometry" />
        </mxCell>
        <mxCell id="iWXGu4qHUyrVc3mA0MU8-50" value="" style="endArrow=classic;html=1;rounded=0;exitX=0;exitY=0.25;exitDx=0;exitDy=0;strokeWidth=1;entryX=0;entryY=0.5;entryDx=0;entryDy=0;" parent="1" source="iWXGu4qHUyrVc3mA0MU8-2" target="iWXGu4qHUyrVc3mA0MU8-48" edge="1">
          <mxGeometry width="50" height="50" relative="1" as="geometry">
            <mxPoint x="-90" y="-1170" as="sourcePoint" />
            <mxPoint x="-680" y="-1260" as="targetPoint" />
            <Array as="points">
              <mxPoint x="-1090" y="-1328" />
              <mxPoint x="-1090" y="-1440" />
            </Array>
          </mxGeometry>
        </mxCell>
        <mxCell id="iWXGu4qHUyrVc3mA0MU8-51" value="&lt;b&gt;&lt;font style=&quot;font-size: 12px;&quot;&gt;4&lt;/font&gt;&lt;/b&gt;" style="swimlane;fontStyle=0;childLayout=stackLayout;horizontal=1;startSize=30;horizontalStack=0;resizeParent=1;resizeParentMax=0;resizeLast=0;collapsible=1;marginBottom=0;whiteSpace=wrap;html=1;fontSize=8;spacing=0;spacingLeft=2;" parent="1" vertex="1">
          <mxGeometry x="250" y="-1480" width="70" height="50" as="geometry" />
        </mxCell>
        <mxCell id="iWXGu4qHUyrVc3mA0MU8-52" value="localhost.cer&lt;br&gt;&lt;b&gt;&lt;font color=&quot;#cc0000&quot;&gt;caroot.cer&lt;/font&gt;&lt;/b&gt;" style="text;strokeColor=none;fillColor=none;align=left;verticalAlign=middle;spacingLeft=2;spacingRight=0;overflow=hidden;points=[[0,0.5],[1,0.5]];portConstraint=eastwest;rotatable=0;whiteSpace=wrap;html=1;fontSize=8;spacing=0;" parent="iWXGu4qHUyrVc3mA0MU8-51" vertex="1">
          <mxGeometry y="30" width="70" height="20" as="geometry" />
        </mxCell>
        <mxCell id="iWXGu4qHUyrVc3mA0MU8-54" value="&lt;b&gt;&lt;font style=&quot;font-size: 12px;&quot;&gt;6&lt;/font&gt;&lt;/b&gt;" style="swimlane;fontStyle=0;childLayout=stackLayout;horizontal=1;startSize=30;horizontalStack=0;resizeParent=1;resizeParentMax=0;resizeLast=0;collapsible=1;marginBottom=0;whiteSpace=wrap;html=1;fontSize=8;spacing=0;spacingLeft=2;" parent="1" vertex="1">
          <mxGeometry x="570" y="-1480" width="70" height="50" as="geometry" />
        </mxCell>
        <mxCell id="iWXGu4qHUyrVc3mA0MU8-55" value="&lt;b&gt;&lt;font color=&quot;#cc0000&quot;&gt;localhost.cer&lt;/font&gt;&lt;/b&gt;&lt;br&gt;caroot.cer" style="text;strokeColor=none;fillColor=none;align=left;verticalAlign=middle;spacingLeft=2;spacingRight=0;overflow=hidden;points=[[0,0.5],[1,0.5]];portConstraint=eastwest;rotatable=0;whiteSpace=wrap;html=1;fontSize=8;spacing=0;" parent="iWXGu4qHUyrVc3mA0MU8-54" vertex="1">
          <mxGeometry y="30" width="70" height="20" as="geometry" />
        </mxCell>
        <mxCell id="GXzt9nJjUX_pgEI2QDhD-1" value="" style="endArrow=classic;html=1;rounded=0;exitX=1;exitY=0.5;exitDx=0;exitDy=0;entryX=0;entryY=0.5;entryDx=0;entryDy=0;" parent="1" source="iWXGu4qHUyrVc3mA0MU8-52" target="iWXGu4qHUyrVc3mA0MU8-1" edge="1">
          <mxGeometry width="50" height="50" relative="1" as="geometry">
            <mxPoint x="310" y="-1360" as="sourcePoint" />
            <mxPoint x="360" y="-1410" as="targetPoint" />
          </mxGeometry>
        </mxCell>
        <mxCell id="GXzt9nJjUX_pgEI2QDhD-2" value="" style="endArrow=classic;html=1;rounded=0;entryX=1;entryY=0.5;entryDx=0;entryDy=0;exitX=0;exitY=0.5;exitDx=0;exitDy=0;" parent="1" source="iWXGu4qHUyrVc3mA0MU8-55" target="iWXGu4qHUyrVc3mA0MU8-1" edge="1">
          <mxGeometry width="50" height="50" relative="1" as="geometry">
            <mxPoint x="500" y="-1360" as="sourcePoint" />
            <mxPoint x="550" y="-1410" as="targetPoint" />
          </mxGeometry>
        </mxCell>
        <mxCell id="GXzt9nJjUX_pgEI2QDhD-3" value="" style="endArrow=classic;html=1;rounded=0;entryX=0.5;entryY=0;entryDx=0;entryDy=0;exitX=0.499;exitY=0.964;exitDx=0;exitDy=0;exitPerimeter=0;" parent="1" source="iWXGu4qHUyrVc3mA0MU8-18" target="iWXGu4qHUyrVc3mA0MU8-1" edge="1">
          <mxGeometry width="50" height="50" relative="1" as="geometry">
            <mxPoint x="500" y="-1360" as="sourcePoint" />
            <mxPoint x="550" y="-1410" as="targetPoint" />
          </mxGeometry>
        </mxCell>
        <mxCell id="GXzt9nJjUX_pgEI2QDhD-5" value="" style="endArrow=classic;html=1;rounded=0;exitX=1;exitY=0.5;exitDx=0;exitDy=0;entryX=0;entryY=0.5;entryDx=0;entryDy=0;" parent="1" source="iWXGu4qHUyrVc3mA0MU8-36" target="iWXGu4qHUyrVc3mA0MU8-39" edge="1">
          <mxGeometry width="50" height="50" relative="1" as="geometry">
            <mxPoint x="-470" y="-970" as="sourcePoint" />
            <mxPoint x="-420" y="-1020" as="targetPoint" />
          </mxGeometry>
        </mxCell>
        <mxCell id="5XHpppHZTFxsWLQ8RcOm-1" value="" style="endArrow=classic;html=1;rounded=0;entryX=0;entryY=0.5;entryDx=0;entryDy=0;exitX=1;exitY=0.5;exitDx=0;exitDy=0;" parent="1" source="iWXGu4qHUyrVc3mA0MU8-48" target="iWXGu4qHUyrVc3mA0MU8-52" edge="1">
          <mxGeometry width="50" height="50" relative="1" as="geometry">
            <mxPoint x="-420" y="-1210" as="sourcePoint" />
            <mxPoint x="-370" y="-1260" as="targetPoint" />
          </mxGeometry>
        </mxCell>
        <mxCell id="5XHpppHZTFxsWLQ8RcOm-2" value="" style="endArrow=classic;html=1;rounded=0;entryX=1;entryY=0.5;entryDx=0;entryDy=0;exitX=1;exitY=0.5;exitDx=0;exitDy=0;" parent="1" source="iWXGu4qHUyrVc3mA0MU8-49" target="iWXGu4qHUyrVc3mA0MU8-55" edge="1">
          <mxGeometry width="50" height="50" relative="1" as="geometry">
            <mxPoint x="700" y="-1520" as="sourcePoint" />
            <mxPoint x="660" y="-1260" as="targetPoint" />
            <Array as="points">
              <mxPoint x="700" y="-1029" />
              <mxPoint x="700" y="-1440" />
            </Array>
          </mxGeometry>
        </mxCell>
        <mxCell id="5XHpppHZTFxsWLQ8RcOm-3" value="" style="endArrow=classic;html=1;rounded=0;exitX=0.5;exitY=1;exitDx=0;exitDy=0;entryX=0;entryY=0.5;entryDx=0;entryDy=0;" parent="1" source="iWXGu4qHUyrVc3mA0MU8-10" target="iWXGu4qHUyrVc3mA0MU8-49" edge="1">
          <mxGeometry width="50" height="50" relative="1" as="geometry">
            <mxPoint x="610" y="-1210" as="sourcePoint" />
            <mxPoint x="1240" y="-1530" as="targetPoint" />
            <Array as="points">
              <mxPoint x="-740" y="-1029" />
            </Array>
          </mxGeometry>
        </mxCell>
        <mxCell id="5XHpppHZTFxsWLQ8RcOm-7" value="Certification Authority" style="text;html=1;align=center;verticalAlign=middle;whiteSpace=wrap;rounded=0;fontSize=62;" parent="1" vertex="1">
          <mxGeometry x="-1090" y="-1580" width="700" height="100" as="geometry" />
        </mxCell>
        <mxCell id="5XHpppHZTFxsWLQ8RcOm-8" value="Server" style="text;html=1;align=center;verticalAlign=middle;whiteSpace=wrap;rounded=0;fontSize=62;" parent="1" vertex="1">
          <mxGeometry x="-140" y="-1590" width="180" height="70" as="geometry" />
        </mxCell>
        <mxCell id="5XHpppHZTFxsWLQ8RcOm-9" value="" style="endArrow=classic;html=1;rounded=0;entryX=0;entryY=0.5;entryDx=0;entryDy=0;exitX=1;exitY=0.5;exitDx=0;exitDy=0;" parent="1" source="iWXGu4qHUyrVc3mA0MU8-43" target="iWXGu4qHUyrVc3mA0MU8-5" edge="1">
          <mxGeometry width="50" height="50" relative="1" as="geometry">
            <mxPoint x="-110" y="-1090" as="sourcePoint" />
            <mxPoint x="-60" y="-1140" as="targetPoint" />
          </mxGeometry>
        </mxCell>
        <mxCell id="5XHpppHZTFxsWLQ8RcOm-13" value="" style="endArrow=none;html=1;rounded=0;dashed=1;dashPattern=1 4;" parent="1" edge="1">
          <mxGeometry width="50" height="50" relative="1" as="geometry">
            <mxPoint x="-320" y="-680" as="sourcePoint" />
            <mxPoint x="-320" y="-1600" as="targetPoint" />
          </mxGeometry>
        </mxCell>
        <mxCell id="5XHpppHZTFxsWLQ8RcOm-6" value="Client" style="text;html=1;align=center;verticalAlign=middle;whiteSpace=wrap;rounded=0;fontSize=62;" parent="1" vertex="1">
          <mxGeometry x="570" y="-795" width="180" height="70" as="geometry" />
        </mxCell>
      </root>
    </mxGraphModel>
  </diagram>
</mxfile>
